<?xml version="1.0" standalone="no"?>
<!DOCTYPE svg PUBLIC "-//W3C//DTD SVG 20010904//EN"
 "http://www.w3.org/TR/2001/REC-SVG-20010904/DTD/svg10.dtd">
<svg version="1.0" xmlns="http://www.w3.org/2000/svg"
 width="225.000000pt" height="225.000000pt" viewBox="0 0 225.000000 225.000000"
 preserveAspectRatio="xMidYMid meet">
<metadata>
Created by potrace 1.15, written by Peter Selinger 2001-2017
</metadata>
<g transform="translate(0.000000,225.000000) scale(0.100000,-0.100000)"
fill="#000000" stroke="none">
<path d="M530 1932 c0 -4 29 -95 65 -202 l65 -194 0 -153 0 -153 65 0 65 0 0
153 0 153 65 194 c36 107 65 198 65 202 0 4 -27 8 -60 8 -72 0 -68 10 -126
-250 -5 -18 -15 11 -40 105 -18 72 -33 133 -34 138 0 9 -130 9 -130 -1z"/>
<path d="M1005 1746 c-64 -28 -70 -51 -70 -253 0 -168 2 -184 21 -210 44 -59
133 -79 213 -47 70 28 76 46 79 240 4 194 -4 230 -60 264 -39 24 -135 27 -183
6z m113 -79 c12 -14 18 -328 7 -347 -10 -16 -62 -12 -69 6 -12 31 -7 329 6
342 16 16 43 15 56 -1z"/>
<path d="M1374 1746 c-3 -7 -4 -117 -2 -244 3 -226 4 -232 26 -254 31 -32 95
-31 140 1 l33 23 6 -21 c5 -18 13 -21 59 -21 l54 0 -2 263 -3 262 -57 3 -58 3
0 -220 0 -221 -25 -6 c-55 -14 -55 -13 -55 226 l0 220 -55 0 c-38 0 -57 -4
-61 -14z"/>
<path d="M442 1115 c-90 -28 -163 -98 -198 -190 -16 -43 -19 -78 -19 -250 0
-184 2 -204 22 -247 29 -62 91 -128 150 -158 l48 -25 675 0 675 0 54 30 c57
32 109 85 138 144 16 32 18 64 18 266 0 221 -1 232 -23 273 -30 56 -90 114
-150 143 l-47 24 -650 2 c-526 2 -658 -1 -693 -12z m276 -147 l-3 -43 -53 0
-52 0 0 -283 0 -283 -57 3 -58 3 -3 278 -2 277 -50 0 -50 0 0 45 0 45 166 0
165 0 -3 -42z m522 -59 l0 -101 33 20 c51 32 97 32 127 2 19 -19 20 -33 20
-225 0 -192 -1 -206 -20 -225 -27 -27 -89 -27 -123 0 -32 25 -37 25 -37 -1 0
-18 -5 -20 -52 -17 l-53 3 -3 323 -2 322 55 0 55 0 0 -101z m497 -64 c18 -4
44 -20 58 -37 23 -27 25 -38 25 -124 l0 -94 -90 0 -90 0 0 -62 c0 -74 9 -91
41 -86 20 2 25 10 29 48 l5 45 53 3 52 3 0 -45 c0 -100 -44 -139 -153 -134
-60 3 -71 7 -100 36 l-32 32 -3 153 c-4 169 5 218 44 244 27 17 89 32 114 27
8 -1 30 -5 47 -9z m-894 -197 c1 -108 5 -200 10 -204 4 -4 20 -3 35 2 l27 9 3
198 2 198 53 -3 52 -3 0 -240 0 -240 -48 -3 c-42 -3 -49 0 -54 18 l-5 20 -33
-20 c-66 -41 -145 -15 -145 48 0 15 -2 113 -4 219 -2 106 -1 195 2 198 4 3 28
5 54 3 l49 -3 2 -197z"/>
<path d="M1251 756 c-8 -9 -11 -60 -9 -157 l3 -144 27 -9 c15 -5 30 -7 33 -4
13 13 17 85 10 203 -7 121 -8 125 -30 125 -12 0 -28 -6 -34 -14z"/>
</g>
</svg>
